<svg width="74" height="77" viewBox="0 0 74 77" fill="none" xmlns="http://www.w3.org/2000/svg">
<path d="M29.4722 61.2509C26.8265 59.7686 24.1808 58.2961 21.575 56.7553C18.9093 55.1853 16.8726 53.0009 15.395 50.3386C13.8475 47.5594 13.2385 44.5461 13.2485 41.3768C13.2785 27.8608 13.2585 14.3449 13.2585 0.828901V0H0V0.682624C0 14.6179 0 28.5629 0 42.4982C0 43.2784 0.0698867 44.0585 0.119806 44.8386C0.369401 48.359 1.33783 51.6941 2.85537 54.883C5.1816 59.7491 8.54614 63.8156 13.1187 66.8094C15.9641 68.672 18.9892 70.2908 21.9444 71.9973C24.1009 73.2456 26.2874 74.4645 28.4539 75.6933C29.2126 76.1223 29.9814 76.5319 30.84 77V63.5426C30.84 61.9823 30.83 62.0018 29.4622 61.2411L29.4722 61.2509Z" fill="black"/>
<path d="M71.4042 0H43.16V9.57624L60.7615 9.61525C60.7615 20.2057 60.7515 30.7863 60.7615 41.3768C60.7615 44.5461 60.1624 47.5594 58.6149 50.3386C57.1373 53.0009 55.0907 55.1853 52.435 56.7553C49.8292 58.2961 47.1835 59.7686 44.5378 61.2509C43.18 62.0115 43.16 61.992 43.16 63.5523V77.0098C44.0186 76.5417 44.7874 76.1321 45.5461 75.703C47.7226 74.4743 49.8991 73.2553 52.0556 72.0071C55.0108 70.3005 58.0259 68.6817 60.8813 66.8191C65.4539 63.8254 68.8184 59.7589 71.1446 54.8927C72.6622 51.7137 73.6306 48.3688 73.8802 44.8484C73.9401 44.0683 74 43.2881 74 42.508C74 28.5629 74 14.6277 74 0.682624V0H71.3942H71.4042Z" fill="black"/>
<path d="M51.3767 29.6161C51.3467 27.2367 51.3667 24.867 51.3667 22.4876C51.3667 21.896 51.0605 21.6002 50.4482 21.6002C40.7539 21.6002 41.2431 21.6002 31.5389 21.6002C31.2493 21.6002 30.9598 21.6002 30.6004 21.6002V0H17.3718V0.994681C17.3718 14.5106 17.3718 28.0364 17.3818 41.5523C17.3818 42.5372 17.4517 43.5417 17.6314 44.5168C18.2504 47.891 19.9876 50.6215 22.813 52.6303C24.021 53.4885 25.3589 54.1809 26.6468 54.922C27.9347 55.6631 29.2426 56.3848 30.6303 57.1649V30.3183H31.5988C41.333 30.3183 40.8937 30.3183 50.6379 30.328C51.207 30.328 51.3767 30.1817 51.3667 29.6161H51.3767Z" fill="black"/>
</svg>
